<?xml version="1.0" encoding="UTF-8"?>
<svg width="24px" height="24px" viewBox="0 0 24 24" version="1.1" xmlns="http://www.w3.org/2000/svg" xmlns:xlink="http://www.w3.org/1999/xlink">
    <title>invia</title>
    <g id="Page-1" stroke="none" stroke-width="1" fill="none" fill-rule="evenodd">
        <g id="ChatBOT-aperto" transform="translate(-1545, -946)" fill="#044273" fill-rule="nonzero">
            <g id="Group-5" transform="translate(1192, 425)">
                <path d="M376,521 C375.904026,521.000658 375.808647,521.01513 375.716797,521.042969 C375.68976,521.050307 375.663044,521.058778 375.636719,521.068359 L353.650391,528.060547 L353.650391,528.064453 C353.259759,528.21022 353.000562,528.583058 353,529 C353.000741,529.349225 353.183611,529.672765 353.482422,529.853516 L360.164062,535.154297 L373.373047,524.626953 L362.845703,537.835938 L368.142578,544.513672 C368.323084,544.815172 368.648596,545 369,545 C369.416943,544.999438 369.78978,544.740241 369.935547,544.349609 L369.939453,544.349609 L376.9375,522.34375 C376.944651,522.32378 376.951164,522.303587 376.957031,522.283203 C376.98487,522.191353 376.999342,522.095974 377,522 C377,521.447715 376.552285,521 376,521 Z" id="invia"></path>
            </g>
        </g>
    </g>
</svg>